HIERARCHY
ROOT Root
{
  OFFSET 0.0 0.0 0.0
  CHANNELS 6 Xposition Yposition Zposition Zrotation Yrotation Xrotation
  JOINT Hips
  {
    OFFSET 0.0 100.0 0.0
    CHANNELS 6 Xposition Yposition Zposition Zrotation Yrotation Xrotation
    JOINT Spine1
    {
      OFFSET -0.013727 5.003763 -0.053727
      CHANNELS 3 Zrotation Yrotation Xrotation
      JOINT Spine2
      {
        OFFSET -0.0 7.125301 -0.029825
        CHANNELS 3 Zrotation Yrotation Xrotation
        JOINT Chest
        {
          OFFSET -1e-06 7.550063 -0.815971
          CHANNELS 3 Zrotation Yrotation Xrotation
          JOINT Neck1
          {
            OFFSET -0.181677 26.311295 -0.553348
            CHANNELS 3 Zrotation Yrotation Xrotation
            JOINT Neck2
            {
              OFFSET -3e-06 7.709397 2.302585
              CHANNELS 3 Zrotation Yrotation Xrotation
              JOINT Head
              {
                OFFSET -5e-06 6.128916 1.953709
                CHANNELS 3 Zrotation Yrotation Xrotation
                JOINT HeadEnd
                {
                  OFFSET 0.003598 16.065403 -1.835379
                  CHANNELS 3 Zrotation Yrotation Xrotation
                }
                JOINT Jaw
                {
                  OFFSET 0.002637 0.475592 3.094941
                  CHANNELS 3 Zrotation Yrotation Xrotation
                }
                JOINT LeftEye
                {
                  OFFSET 3.206381 5.380205 7.586883
                  CHANNELS 3 Zrotation Yrotation Xrotation
                }
                JOINT RightEye
                {
                  OFFSET -3.22244 5.361869 7.558234
                  CHANNELS 3 Zrotation Yrotation Xrotation
                }
              }
            }
          }
          JOINT LeftShoulder
          {
            OFFSET 1.621652 23.237164 5.113413
            CHANNELS 3 Zrotation Yrotation Xrotation
            JOINT LeftArm
            {
              OFFSET 14.919846 2e-06 -5.502326
              CHANNELS 3 Zrotation Yrotation Xrotation
              JOINT LeftForeArm
              {
                OFFSET 28.739307 0.0 -0.002588
                CHANNELS 3 Zrotation Yrotation Xrotation
                JOINT LeftHand
                {
                  OFFSET 27.093981 -1e-06 0.002609
                  CHANNELS 3 Zrotation Yrotation Xrotation
                  JOINT LeftHandThumb1
                  {
                    OFFSET 2.276482 -1.392045 3.191413
                    CHANNELS 3 Zrotation Yrotation Xrotation
                    JOINT LeftHandThumb2
                    {
                      OFFSET 4.012836 -1.828127 1.641654
                      CHANNELS 3 Zrotation Yrotation Xrotation
                      JOINT LeftHandThumb3
                      {
                        OFFSET 2.798515 0.0 -3e-06
                        CHANNELS 3 Zrotation Yrotation Xrotation
                        JOINT LeftHandThumbEnd
                        {
                          OFFSET 3.180793 -4e-06 4e-06
                          CHANNELS 3 Zrotation Yrotation Xrotation
                        }
                      }
                    }
                  }
                  JOINT LeftHandIndex1
                  {
                    OFFSET 3.247555 -0.531998 2.296169
                    CHANNELS 3 Zrotation Yrotation Xrotation
                    JOINT LeftHandIndex2
                    {
                      OFFSET 6.364578 0.01206 0.1786
                      CHANNELS 3 Zrotation Yrotation Xrotation
                      JOINT LeftHandIndex3
                      {
                        OFFSET 3.662364 0.0 0.0
                        CHANNELS 3 Zrotation Yrotation Xrotation
                        JOINT LeftHandIndex4
                        {
                          OFFSET 2.329242 4e-06 4e-06
                          CHANNELS 3 Zrotation Yrotation Xrotation
                          JOINT LeftHandIndexEnd
                          {
                            OFFSET 2.759615 -0.180537 -0.113024
                            CHANNELS 3 Zrotation Yrotation Xrotation
                          }
                        }
                      }
                    }
                  }
                  JOINT LeftHandMiddle1
                  {
                    OFFSET 3.163495 0.240981 1.000332
                    CHANNELS 3 Zrotation Yrotation Xrotation
                    JOINT LeftHandMiddle2
                    {
                      OFFSET 6.19078 -0.259278 -1.002548
                      CHANNELS 3 Zrotation Yrotation Xrotation
                      JOINT LeftHandMiddle3
                      {
                        OFFSET 4.35652 -4e-06 -1e-06
                        CHANNELS 3 Zrotation Yrotation Xrotation
                        JOINT LeftHandMiddle4
                        {
                          OFFSET 2.996877 -8e-06 0.0
                          CHANNELS 3 Zrotation Yrotation Xrotation
                          JOINT LeftHandMiddleEnd
                          {
                            OFFSET 2.304287 -0.294569 -0.031741
                            CHANNELS 3 Zrotation Yrotation Xrotation
                          }
                        }
                      }
                    }
                  }
                  JOINT LeftHandRing1
                  {
                    OFFSET 2.882643 -0.053652 -0.322543
                    CHANNELS 3 Zrotation Yrotation Xrotation
                    JOINT LeftHandRing2
                    {
                      OFFSET 5.854541 -0.486202 -1.373841
                      CHANNELS 3 Zrotation Yrotation Xrotation
                      JOINT LeftHandRing3
                      {
                        OFFSET 4.350578 0.0 3e-06
                        CHANNELS 3 Zrotation Yrotation Xrotation
                        JOINT LeftHandRing4
                        {
                          OFFSET 2.651321 7e-06 2e-06
                          CHANNELS 3 Zrotation Yrotation Xrotation
                          JOINT LeftHandRingEnd
                          {
                            OFFSET 1.936105 0.077687 -7.1e-05
                            CHANNELS 3 Zrotation Yrotation Xrotation
                          }
                        }
                      }
                    }
                  }
                  JOINT LeftHandPinky1
                  {
                    OFFSET 2.8655 -0.310005 -1.600378
                    CHANNELS 3 Zrotation Yrotation Xrotation
                    JOINT LeftHandPinky2
                    {
                      OFFSET 5.087849 -1.331141 -1.77123
                      CHANNELS 3 Zrotation Yrotation Xrotation
                      JOINT LeftHandPinky3
                      {
                        OFFSET 3.070974 4e-06 0.0
                        CHANNELS 3 Zrotation Yrotation Xrotation
                        JOINT LeftHandPinky4
                        {
                          OFFSET 1.549672 0.0 1e-06
                          CHANNELS 3 Zrotation Yrotation Xrotation
                          JOINT LeftHandPinkyEnd
                          {
                            OFFSET 1.944893 -0.157802 0.057219
                            CHANNELS 3 Zrotation Yrotation Xrotation
                          }
                        }
                      }
                    }
                  }
                }
              }
            }
          }
          JOINT RightShoulder
          {
            OFFSET -1.380118 23.180309 5.214158
            CHANNELS 3 Zrotation Yrotation Xrotation
            JOINT RightArm
            {
              OFFSET -15.037196 1.2e-05 -5.545604
              CHANNELS 3 Zrotation Yrotation Xrotation
              JOINT RightForeArm
              {
                OFFSET -28.736639 2e-06 -0.002597
                CHANNELS 3 Zrotation Yrotation Xrotation
                JOINT RightHand
                {
                  OFFSET -27.133619 -0.0 0.002613
                  CHANNELS 3 Zrotation Yrotation Xrotation
                  JOINT RightHandThumb1
                  {
                    OFFSET -2.274032 -1.383988 3.163127
                    CHANNELS 3 Zrotation Yrotation Xrotation
                    JOINT RightHandThumb2
                    {
                      OFFSET -4.011429 -1.827466 1.640914
                      CHANNELS 3 Zrotation Yrotation Xrotation
                      JOINT RightHandThumb3
                      {
                        OFFSET -2.794935 -4e-06 -3e-06
                        CHANNELS 3 Zrotation Yrotation Xrotation
                        JOINT RightHandThumbEnd
                        {
                          OFFSET -3.183852 4e-06 1e-06
                          CHANNELS 3 Zrotation Yrotation Xrotation
                        }
                      }
                    }
                  }
                  JOINT RightHandIndex1
                  {
                    OFFSET -3.253266 -0.520057 2.282866
                    CHANNELS 3 Zrotation Yrotation Xrotation
                    JOINT RightHandIndex2
                    {
                      OFFSET -6.341917 0.012471 0.178266
                      CHANNELS 3 Zrotation Yrotation Xrotation
                      JOINT RightHandIndex3
                      {
                        OFFSET -3.654871 -8e-06 -0.0
                        CHANNELS 3 Zrotation Yrotation Xrotation
                        JOINT RightHandIndex4
                        {
                          OFFSET -2.327586 0.0 1e-06
                          CHANNELS 3 Zrotation Yrotation Xrotation
                          JOINT RightHandIndexEnd
                          {
                            OFFSET -2.76179 -0.180656 -0.113078
                            CHANNELS 3 Zrotation Yrotation Xrotation
                          }
                        }
                      }
                    }
                  }
                  JOINT RightHandMiddle1
                  {
                    OFFSET -3.168106 0.246593 1.00103
                    CHANNELS 3 Zrotation Yrotation Xrotation
                    JOINT RightHandMiddle2
                    {
                      OFFSET -6.180828 -0.258836 -1.000895
                      CHANNELS 3 Zrotation Yrotation Xrotation
                      JOINT RightHandMiddle3
                      {
                        OFFSET -4.348901 0.0 -0.0
                        CHANNELS 3 Zrotation Yrotation Xrotation
                        JOINT RightHandMiddle4
                        {
                          OFFSET -3.00024 -4e-06 -2e-06
                          CHANNELS 3 Zrotation Yrotation Xrotation
                          JOINT RightHandMiddleEnd
                          {
                            OFFSET -2.30252 -0.29437 -0.031706
                            CHANNELS 3 Zrotation Yrotation Xrotation
                          }
                        }
                      }
                    }
                  }
                  JOINT RightHandRing1
                  {
                    OFFSET -2.88569 -0.067952 -0.308858
                    CHANNELS 3 Zrotation Yrotation Xrotation
                    JOINT RightHandRing2
                    {
                      OFFSET -5.854198 -0.48613 -1.373731
                      CHANNELS 3 Zrotation Yrotation Xrotation
                      JOINT RightHandRing3
                      {
                        OFFSET -4.33881 -4e-06 -0.0
                        CHANNELS 3 Zrotation Yrotation Xrotation
                        JOINT RightHandRing4
                        {
                          OFFSET -2.654903 -4e-06 4e-06
                          CHANNELS 3 Zrotation Yrotation Xrotation
                          JOINT RightHandRingEnd
                          {
                            OFFSET -1.933568 0.077527 -5.2e-05
                            CHANNELS 3 Zrotation Yrotation Xrotation
                          }
                        }
                      }
                    }
                  }
                  JOINT RightHandPinky1
                  {
                    OFFSET -2.866425 -0.342796 -1.584145
                    CHANNELS 3 Zrotation Yrotation Xrotation
                    JOINT RightHandPinky2
                    {
                      OFFSET -5.091371 -1.332055 -1.772385
                      CHANNELS 3 Zrotation Yrotation Xrotation
                      JOINT RightHandPinky3
                      {
                        OFFSET -3.062664 -4e-06 1e-06
                        CHANNELS 3 Zrotation Yrotation Xrotation
                        JOINT RightHandPinky4
                        {
                          OFFSET -1.546529 4e-06 -2e-06
                          CHANNELS 3 Zrotation Yrotation Xrotation
                          JOINT RightHandPinkyEnd
                          {
                            OFFSET -1.945119 -0.157718 0.057211
                            CHANNELS 3 Zrotation Yrotation Xrotation
                          }
                        }
                      }
                    }
                  }
                }
              }
            }
          }
        }
      }
    }
    JOINT LeftLeg
    {
      OFFSET 10.043214 -8.434526 2.595655
      CHANNELS 3 Zrotation Yrotation Xrotation
      JOINT LeftShin
      {
        OFFSET -1e-06 -43.221752 -0.802913
        CHANNELS 3 Zrotation Yrotation Xrotation
        JOINT LeftFoot
        {
          OFFSET 1e-06 -42.155094 -3.481523
          CHANNELS 3 Zrotation Yrotation Xrotation
          JOINT LeftToeBase
          {
            OFFSET 0.0 -5.059472 13.231529
            CHANNELS 3 Zrotation Yrotation Xrotation
            JOINT LeftToeEnd
            {
              OFFSET -0.009607 -1.647619 6.513017
              CHANNELS 3 Zrotation Yrotation Xrotation
            }
          }
        }
      }
    }
    JOINT RightLeg
    {
      OFFSET -10.047278 -8.29526 2.620317
      CHANNELS 3 Zrotation Yrotation Xrotation
      JOINT RightShin
      {
        OFFSET 1e-06 -43.362206 -0.805556
        CHANNELS 3 Zrotation Yrotation Xrotation
        JOINT RightFoot
        {
          OFFSET 2e-06 -42.117393 -3.478398
          CHANNELS 3 Zrotation Yrotation Xrotation
          JOINT RightToeBase
          {
            OFFSET -0.0 -5.079609 13.284196
            CHANNELS 3 Zrotation Yrotation Xrotation
            JOINT RightToeEnd
            {
              OFFSET 0.009532 -1.634378 6.460591
              CHANNELS 3 Zrotation Yrotation Xrotation
            }
          }
        }
      }
    }
  }
}
MOTION
Frames: 5
Frame Time: 0.03333333333333333
0.0 0.0 0.0 0.0 -0.0 0.0 1.254162 100.312515 -2.619633 0.881824 0.175809 -3.264931 1.298323 0.072391 0.703607 -0.018074 0.394376 -4.709801 0.73856 -1.309205 9.114655 -1.711995 3.444972 3.193809 -1.167511 -1.875727 -3.544466 -0.268509 -2.014688 -11.764712 7.7e-05 -2.3e-05 5e-06 -0.005471 -0.081755 0.015409 0.652021 -3.831358 -10.512205 -0.665369 3.669466 -10.459558 -7.323187 -3.190959 11.947284 -61.305073 -7.296722 27.372683 2.278011 -49.716293 -1.49061 6.284483 -8.54375 2.478757 -5.882114 9.861294 0.702592 -10.936885 -0.360575 7.156212 2e-06 8.774835 0.0 -15.695438 18.783636 6.421029 -1.844037 2.498508 -2.507281 -10.163611 4.67895 4.621111 -20.976053 -6e-06 0.0 -21.226315 2.451698 -3.594004 1e-06 -5e-06 -0.0 -1.362682 2.2408 -0.746323 -21.334946 0.58491 3.008324 -13.821232 -3e-06 2e-06 -23.887201 -0.249081 -0.839485 -60.261974 2.938109 -1.438108 -0.294022 1.679688 0.833256 -14.218225 0.093216 1.30058 -34.212097 -0.287564 0.967168 -20.033239 0.964538 1.212842 0.0 0.0 0.0 -3.440392 0.788234 0.501656 -15.928203 -3.167313 2.999708 -6.338833 -2e-06 0.0 -18.12347 3.648183 -4.905678 -3e-06 1e-06 -2e-06 6.589541 11.516611 14.422148 65.933136 18.737904 36.227985 0.744046 29.521433 0.431968 -7.348997 -9.005512 -4.555286 2.243543 -5.25504 -3.18016 14.282904 -0.826593 6.952508 -4e-06 -12.690617 1e-06 16.425154 -17.524433 2.314629 1.665668 -1.955923 -2.878301 4.727803 -4.170592 4.993928 11.020538 3e-06 -1e-06 12.109062 -3.735717 -2.866786 0.0 -0.0 2e-06 1.291986 -1.928551 -1.49809 14.800144 0.567472 3.865609 14.242586 -1.341734 -6.660663 19.63199 0.143929 -0.648244 49.714222 -0.536481 -6.55286 0.353029 -1.511151 -0.031939 20.222813 3.684315 2.316631 18.787289 9e-06 -1e-06 10.751637 -0.479868 1.397906 1e-06 1e-06 1e-06 3.27381 0.305949 -0.580114 21.486834 11.830392 2.266133 8.162937 4e-06 -2e-06 18.399099 -3.798985 -4.940579 3e-06 -1e-06 -0.0 1.429535 6.517595 3.675964 0.003715 0.089619 1.841068 -2.436613 8.231028 -2.305329 1.617703 -2.065129 -1.031358 -0.0 0.0 2e-06 -6.10397 5.114831 1.196739 -0.08484 0.051341 3.417558 5.561639 -3.148806 -1.918863 -1.454376 1.150782 -0.903982 0.0 0.0 -1e-06 
0.0 0.0 0.0 0.0 -0.0 0.0 1.429221 100.336967 -2.746371 0.957083 0.008621 -3.43921 1.338577 0.050525 0.764404 0.026013 0.503331 -4.678386 0.863142 -1.042631 9.168988 -1.699658 3.482542 3.383253 -1.227821 -2.320643 -3.531486 -0.615114 -2.398832 -11.863819 7.7e-05 -2.3e-05 6e-06 -0.011052 -0.10278 0.002386 0.632693 -3.846437 -10.48425 -0.657047 3.641573 -10.439951 -7.42904 -2.717256 12.194728 -58.664364 -6.148319 28.186373 2.130565 -56.273804 -1.747524 7.900087 -10.980615 0.974983 -5.882112 9.861297 0.70259 -10.93688 -0.360575 7.156209 0.0 8.774833 0.0 -15.760607 18.741274 6.34059 -1.844035 2.498507 -2.507281 -10.16361 4.678951 4.621113 -20.976051 -5e-06 -1e-06 -21.226313 2.451693 -3.594007 1e-06 -6e-06 -1e-06 -1.362681 2.240801 -0.746323 -21.334936 0.584911 3.008323 -13.821229 -3e-06 -0.0 -23.887201 -0.249082 -0.839489 -60.200108 3.012353 -1.456872 -0.294026 1.679688 0.833258 -14.218223 0.093214 1.300578 -34.212086 -0.287569 0.967166 -20.033234 0.964534 1.212843 -0.0 -0.0 0.0 -3.440393 0.788233 0.501656 -15.928203 -3.167312 2.999707 -6.338832 0.0 -1e-06 -18.123466 3.648185 -4.905678 -3e-06 1e-06 -3e-06 7.121827 11.973248 14.67257 63.075287 21.076172 32.921135 0.597853 31.892733 0.278775 -5.597782 -9.217345 -5.106627 2.243544 -5.255042 -3.180157 14.282904 -0.826593 6.952506 -5e-06 -12.690616 -0.0 16.485704 -17.621412 2.38877 1.665668 -1.955923 -2.878301 4.727803 -4.170592 4.993928 11.020536 5e-06 -3e-06 12.109062 -3.735717 -2.866787 1e-06 -1e-06 2e-06 1.291986 -1.928549 -1.498091 14.80014 0.567471 3.865608 14.242585 -1.341735 -6.660664 19.631987 0.143933 -0.648246 50.051533 -0.611024 -6.577463 0.353029 -1.511151 -0.031938 20.222811 3.684319 2.316627 18.787292 1e-05 -5e-06 10.751638 -0.479867 1.397906 1e-06 1e-06 0.0 3.273809 0.305949 -0.58011 21.486835 11.830393 2.26613 8.162932 4e-06 -3e-06 18.399097 -3.798985 -4.940581 2e-06 -1e-06 1e-06 1.253245 6.633064 3.738005 -0.010204 0.02627 1.941867 -2.411197 8.267253 -2.160862 1.626817 -2.113078 -1.232231 0.0 -0.0 2e-06 -6.288067 5.076957 1.149117 -0.072559 0.085817 3.712157 5.654158 -2.888972 -1.802441 -1.464752 1.158717 -0.947752 0.0 0.0 -1e-06 
0.0 0.0 0.0 0.0 -0.0 0.0 1.59429 100.324425 -2.89863 1.06056 -0.189546 -3.662816 1.338386 0.020867 0.818589 0.058917 0.619199 -4.675222 1.061814 -0.855522 9.306606 -1.69889 3.513073 3.687469 -1.319075 -2.824952 -3.569956 -1.06037 -2.912537 -11.697679 7.7e-05 -2.2e-05 6e-06 -0.012265 -0.12418 -0.001845 0.618446 -3.862587 -10.496043 -0.645681 3.613579 -10.449041 -7.497345 -2.253165 12.666323 -55.283173 -5.199624 30.56131 2.362904 -63.071571 -2.202864 9.468029 -13.90737 0.489291 -5.882108 9.861286 0.702589 -10.936873 -0.360576 7.156206 -1e-06 8.774826 -2e-06 -15.848058 18.51074 6.216976 -1.844035 2.498505 -2.507277 -10.163605 4.678945 4.621108 -20.976032 -3e-06 2e-06 -21.226295 2.451697 -3.594002 1e-06 -7e-06 -1e-06 -1.362683 2.240799 -0.746324 -21.334921 0.584907 3.008321 -13.821218 -1e-06 1e-06 -23.887178 -0.24908 -0.839485 -60.309719 3.044075 -1.381201 -0.294024 1.679687 0.833254 -14.218211 0.093214 1.300579 -34.212059 -0.287562 0.96717 -20.033224 0.964534 1.212844 -0.0 -0.0 0.0 -3.440388 0.788233 0.501656 -15.928189 -3.16731 2.999708 -6.338829 1e-06 2e-06 -18.123453 3.648185 -4.905672 -4e-06 -0.0 -1e-06 7.707262 12.580914 14.784544 59.649155 23.798836 27.717745 0.238465 34.732967 0.048254 -4.180743 -9.405766 -6.794636 2.243541 -5.255036 -3.180155 14.282892 -0.826596 6.952504 -1e-06 -12.690603 -1e-06 16.457964 -17.733597 2.553799 1.665666 -1.955922 -2.878298 4.727798 -4.170588 4.993923 11.020524 3e-06 -1e-06 12.109051 -3.735716 -2.866784 1e-06 0.0 0.0 1.291986 -1.92855 -1.498089 14.800129 0.567468 3.865609 14.242574 -1.341737 -6.660658 19.631969 0.143924 -0.648246 50.221657 -0.720114 -6.585721 0.35303 -1.511151 -0.03194 20.222794 3.684306 2.316632 18.787273 4e-06 -2e-06 10.751631 -0.47987 1.397906 1e-06 1e-06 0.0 3.273808 0.305946 -0.58011 21.486813 11.830372 2.266136 8.162927 -0.0 -0.0 18.399086 -3.798985 -4.940577 2e-06 0.0 0.0 1.07335 6.722129 3.880177 -0.015178 -0.007296 2.054416 -2.285637 8.328632 -2.134948 1.634082 -2.134982 -1.337264 -0.0 -0.0 2e-06 -6.523407 5.065198 0.931082 -0.060035 0.116216 4.466954 5.87461 -2.54747 -1.973816 -1.470559 1.181249 -0.910338 -0.0 -0.0 -1e-06 
0.0 0.0 0.0 0.0 -0.0 0.0 1.755793 100.281761 -3.070452 1.184574 -0.430561 -3.85843 1.329498 -0.004562 0.861917 0.08118 0.777637 -4.682575 1.312676 -0.75508 9.481914 -1.754919 3.506122 3.984509 -1.425522 -3.276616 -3.59484 -1.519607 -3.401703 -11.422701 7.7e-05 -2.2e-05 6e-06 -0.008936 -0.12841 -0.003197 0.614472 -3.860034 -10.522246 -0.635925 3.601826 -10.472863 -7.464172 -1.806251 13.236567 -51.305359 -4.647503 34.381012 2.988205 -69.577888 -2.94287 10.996101 -17.6754 1.955636 -5.882106 9.861286 0.702594 -10.936872 -0.360577 7.156208 2e-06 8.774828 -1e-06 -15.977129 18.147871 5.956224 -1.844033 2.498504 -2.507279 -10.1636 4.678944 4.621109 -20.976027 -7e-06 3e-06 -21.226288 2.451696 -3.593999 -0.0 -7e-06 0.0 -1.362681 2.240798 -0.746325 -21.334919 0.584908 3.008324 -13.821216 -2e-06 2e-06 -23.887175 -0.249079 -0.839482 -60.544609 2.984996 -1.232315 -0.294024 1.679687 0.833255 -14.218215 0.093212 1.300582 -34.212063 -0.287567 0.967173 -20.033218 0.964536 1.212845 0.0 0.0 0.0 -3.440391 0.788232 0.501657 -15.928189 -3.16731 2.999708 -6.338824 0.0 2e-06 -18.123447 3.64818 -4.905669 -4e-06 1e-06 -2e-06 8.080955 13.240933 14.722493 56.13805 27.032831 21.254156 -0.498111 37.436699 -0.406377 -3.897507 -9.367572 -9.457149 2.243543 -5.255037 -3.180159 14.282899 -0.826595 6.952503 -3e-06 -12.690609 3e-06 16.134226 -17.753363 2.894068 1.665668 -1.95592 -2.8783 4.727801 -4.170588 4.993928 11.020534 4e-06 -0.0 12.109059 -3.735715 -2.866785 -1e-06 1e-06 -1e-06 1.291986 -1.92855 -1.498089 14.800136 0.56747 3.865608 14.24258 -1.341734 -6.660662 19.631981 0.143928 -0.648244 50.154118 -0.859799 -6.472873 0.353028 -1.511149 -0.03194 20.222803 3.684314 2.316629 18.787287 8e-06 -2e-06 10.751634 -0.479867 1.397905 1e-06 1e-06 -1e-06 3.273809 0.305947 -0.58011 21.486824 11.830381 2.266129 8.162931 3e-06 -2e-06 18.39909 -3.798984 -4.940576 2e-06 -1e-06 -2e-06 0.860733 6.796427 4.026195 -0.012263 -0.054934 2.096884 -2.12083 8.498735 -2.200907 1.635039 -2.140183 -1.450976 0.0 -0.0 2e-06 -6.783166 5.113461 0.697605 -0.049704 0.126672 5.100189 6.124902 -2.226038 -2.217067 -1.467929 1.172377 -1.019486 -0.0 -0.0 -1e-06 
0.0 0.0 0.0 0.0 -0.0 0.0 1.941319 100.216995 -3.278025 1.334523 -0.674679 -3.989235 1.357756 -0.023359 0.912225 0.102175 0.947737 -4.674356 1.557598 -0.676962 9.656057 -1.810883 3.452655 4.191053 -1.557236 -3.673991 -3.606428 -1.930805 -3.8841 -11.136869 7.7e-05 -2.2e-05 6e-06 -0.004173 -0.123336 -0.005855 0.616395 -3.847374 -10.538273 -0.629147 3.599343 -10.495506 -7.402191 -1.384728 13.922821 -46.692192 -4.682504 39.261261 4.031518 -75.918373 -3.998756 12.397348 -22.653698 5.35032 -5.88211 9.861288 0.702589 -10.936873 -0.360574 7.156206 -0.0 8.774826 -1e-06 -16.130501 17.820328 5.587399 -1.844034 2.498503 -2.507279 -10.163604 4.678946 4.62111 -20.976036 -3e-06 2e-06 -21.226297 2.451699 -3.594002 0.0 -5e-06 -0.0 -1.362683 2.240798 -0.746324 -21.334921 0.584911 3.008321 -13.821218 0.0 0.0 -23.88718 -0.249081 -0.839487 -60.7757 2.87124 -1.107283 -0.294025 1.679688 0.833256 -14.218214 0.093215 1.300581 -34.212063 -0.287565 0.967169 -20.03322 0.964536 1.212843 0.0 1e-06 0.0 -3.440389 0.788234 0.501655 -15.928194 -3.167311 2.999707 -6.338829 -1e-06 0.0 -18.123457 3.648183 -4.905673 -4e-06 2e-06 -2e-06 8.055843 13.982885 14.388111 52.605034 30.728079 13.417259 -1.386161 40.335312 -0.923315 -4.740119 -9.199407 -12.281753 2.243541 -5.255036 -3.180158 14.282896 -0.826596 6.952505 -2e-06 -12.690608 1e-06 15.589146 -17.714672 3.240037 1.665667 -1.955924 -2.878299 4.7278 -4.170589 4.993926 11.020531 1e-06 0.0 12.109055 -3.735717 -2.866783 -2e-06 -0.0 -1e-06 1.291986 -1.92855 -1.498088 14.800132 0.567468 3.865607 14.242577 -1.341736 -6.66066 19.631973 0.143925 -0.648247 49.853916 -0.969237 -6.27002 0.353029 -1.511152 -0.031938 20.222797 3.684311 2.31663 18.787283 4e-06 -2e-06 10.751633 -0.47987 1.397907 1e-06 3e-06 1e-06 3.273808 0.305947 -0.580112 21.486816 11.830377 2.266131 8.162928 1e-06 0.0 18.399088 -3.798988 -4.940578 3e-06 1e-06 0.0 0.597083 6.806888 4.034967 0.002142 -0.12905 2.27159 -1.954694 8.7437 -2.401096 1.629147 -2.121117 -1.563818 0.0 -0.0 2e-06 -7.0803 5.21037 0.437279 -0.039806 0.126551 5.556211 6.373027 -2.02942 -2.494995 -1.459014 1.137543 -1.228426 0.0 0.0 -1e-06 
